<?xml version="1.0" standalone="no"?>
<!DOCTYPE svg PUBLIC "-//W3C//DTD SVG 20010904//EN"
 "http://www.w3.org/TR/2001/REC-SVG-20010904/DTD/svg10.dtd">
<svg version="1.0" xmlns="http://www.w3.org/2000/svg"
 width="1000.000000pt" height="1000.000000pt" viewBox="0 0 1000.000000 1000.000000"
 preserveAspectRatio="xMidYMid meet">

<g transform="translate(0.000000,1000.000000) scale(0.100000,-0.100000)"
fill="#000000" stroke="none">
<path d="M3585 9010 c-11 -5 -33 -9 -49 -9 -42 -1 -106 -22 -191 -62 -139 -65
-298 -200 -384 -327 -46 -68 -141 -249 -141 -270 0 -7 -4 -21 -10 -32 -5 -11
-14 -29 -20 -40 -5 -11 -10 -29 -10 -39 0 -11 -4 -22 -9 -25 -5 -3 -11 -20
-14 -38 -3 -18 -11 -55 -17 -83 -42 -189 -53 -307 -53 -570 -1 -222 6 -323 32
-465 24 -134 37 -191 60 -272 6 -21 15 -53 20 -70 17 -65 63 -193 72 -202 5
-6 9 -16 9 -23 0 -50 242 -504 290 -543 3 -3 27 -34 54 -70 66 -89 175 -201
277 -286 81 -66 269 -172 334 -188 17 -4 50 -12 75 -18 57 -14 201 -14 260 0
86 19 190 60 190 74 0 5 6 8 13 8 19 0 133 106 182 171 25 32 68 105 96 161
28 57 55 111 60 120 5 10 9 27 9 37 0 11 4 22 9 25 5 3 11 18 14 33 3 16 11
46 17 68 29 101 59 265 82 445 15 123 15 587 0 710 -19 154 -39 269 -61 355
-22 88 -30 121 -36 150 -4 17 -10 39 -14 50 -5 11 -23 65 -40 120 -18 55 -36
110 -41 123 -6 12 -14 32 -19 45 -9 22 -27 65 -57 135 -30 68 -84 176 -115
227 -16 28 -32 57 -36 65 -22 52 -163 232 -230 293 -161 150 -341 228 -521
226 -37 0 -76 -4 -87 -9z m-28 -494 c27 -23 28 -28 27 -110 0 -47 -5 -102 -11
-123 -7 -21 -29 -96 -51 -168 -46 -150 -67 -220 -94 -325 -90 -345 -142 -440
-233 -420 -106 24 -157 137 -157 349 0 229 67 450 199 649 95 142 245 212 320
148z"/>
<path d="M6205 9008 c-138 -34 -182 -53 -280 -119 -89 -59 -145 -113 -223
-214 -35 -44 -71 -91 -82 -105 -11 -14 -20 -31 -20 -37 0 -7 -3 -13 -7 -13 -5
0 -13 -10 -19 -23 -6 -12 -44 -87 -85 -167 -65 -128 -87 -175 -118 -255 -5
-11 -13 -31 -19 -45 -6 -14 -16 -43 -23 -65 -7 -22 -17 -44 -21 -49 -4 -6 -8
-20 -8 -32 0 -13 -4 -25 -9 -28 -5 -3 -11 -18 -14 -33 -3 -16 -11 -46 -17 -68
-82 -285 -114 -532 -113 -880 0 -300 21 -509 73 -715 6 -25 14 -60 17 -78 3
-18 9 -35 14 -38 5 -3 9 -16 9 -30 0 -13 4 -32 9 -42 5 -9 24 -55 42 -102 18
-47 41 -97 51 -112 10 -14 18 -29 18 -33 0 -11 78 -119 112 -155 109 -114 202
-163 378 -200 68 -15 252 0 274 21 6 5 16 9 24 9 28 0 218 101 287 152 71 53
255 231 313 303 129 161 281 431 357 635 9 25 21 54 25 65 5 11 19 52 31 90
12 39 25 79 30 90 4 11 10 34 14 50 3 17 10 48 16 70 56 223 72 367 73 660 0
269 -9 365 -54 570 -6 28 -14 65 -17 83 -3 18 -9 35 -14 38 -5 3 -9 15 -9 28
0 12 -4 26 -8 32 -4 5 -14 27 -21 49 -23 71 -93 208 -144 285 -53 79 -212 244
-247 255 -11 3 -20 10 -20 13 0 7 -150 85 -195 102 -103 39 -299 59 -380 38z
m2 -460 c61 -65 61 -180 -1 -418 -84 -325 -189 -544 -326 -678 -39 -39 -123
-82 -158 -82 -40 0 -79 30 -92 71 -25 74 -3 176 108 514 93 280 124 353 199
466 71 107 134 158 199 158 33 1 46 -5 71 -31z"/>
<path d="M1690 7171 c-8 -6 -29 -11 -47 -11 -18 0 -45 -5 -60 -11 -15 -6 -39
-16 -53 -21 -37 -15 -144 -70 -150 -77 -3 -3 -22 -19 -44 -35 -49 -37 -115
-103 -152 -152 -16 -22 -31 -41 -35 -44 -3 -3 -16 -25 -30 -50 -13 -25 -27
-46 -31 -48 -5 -2 -8 -9 -8 -16 0 -7 -9 -31 -20 -54 -11 -22 -20 -46 -20 -52
0 -5 -4 -18 -9 -28 -19 -36 -46 -165 -58 -277 -23 -221 12 -549 87 -810 6 -22
14 -52 17 -68 3 -15 9 -30 14 -33 5 -3 9 -16 9 -29 0 -13 5 -27 10 -30 6 -3
10 -15 10 -26 0 -10 4 -27 9 -37 5 -9 13 -28 19 -42 48 -118 124 -274 176
-360 45 -74 136 -213 146 -220 3 -3 17 -21 30 -40 54 -78 237 -269 340 -354
150 -125 317 -221 460 -265 41 -12 90 -27 109 -33 44 -13 290 -13 304 1 6 6
19 11 29 11 10 0 26 4 36 9 9 5 33 16 54 25 131 57 268 228 316 394 44 154 46
176 46 462 0 272 -11 392 -54 585 -6 28 -14 67 -17 88 -3 20 -9 40 -14 43 -5
3 -9 18 -9 34 0 16 -4 32 -10 35 -5 3 -10 19 -10 35 0 16 -4 32 -10 35 -5 3
-10 16 -10 29 0 12 -4 26 -8 32 -4 5 -14 27 -21 49 -7 22 -17 50 -22 63 -5 12
-13 32 -18 45 -27 71 -124 269 -181 372 -33 60 -187 295 -200 305 -3 3 -17 21
-30 40 -13 19 -27 37 -30 40 -3 3 -30 34 -60 70 -69 81 -178 190 -227 227 -21
15 -44 34 -51 40 -15 15 -114 72 -157 92 -16 7 -38 17 -47 22 -10 5 -26 9 -36
9 -10 0 -22 4 -27 9 -21 19 -233 37 -255 22z m20 -498 c53 -49 54 -75 11 -448
-6 -49 -13 -119 -16 -155 -19 -209 -40 -301 -79 -341 -27 -28 -35 -31 -77 -27
-56 6 -91 31 -134 96 -63 95 -80 169 -79 342 1 128 4 155 28 235 35 114 76
191 130 245 84 84 161 103 216 53z"/>
<path d="M8145 7170 c-11 -5 -37 -9 -57 -9 -20 -1 -40 -5 -43 -11 -3 -5 -15
-10 -25 -10 -26 0 -131 -54 -219 -113 -77 -51 -236 -203 -306 -292 -22 -27
-42 -52 -45 -55 -3 -3 -27 -34 -53 -70 -27 -36 -54 -73 -62 -82 -7 -9 -19 -27
-26 -39 -6 -13 -20 -32 -30 -43 -11 -11 -19 -26 -19 -33 0 -7 -4 -13 -9 -13
-5 0 -11 -8 -14 -17 -4 -10 -20 -40 -36 -68 -51 -84 -151 -292 -186 -385 -23
-61 -31 -81 -43 -110 -6 -14 -16 -43 -23 -65 -6 -22 -15 -49 -19 -60 -19 -54
-30 -93 -30 -113 0 -11 -4 -23 -9 -26 -5 -3 -11 -20 -14 -38 -4 -18 -11 -58
-17 -88 -46 -235 -53 -314 -53 -580 0 -252 7 -365 24 -376 5 -3 9 -20 9 -39 0
-19 5 -37 10 -40 6 -3 10 -13 10 -21 0 -9 15 -48 33 -87 119 -255 345 -380
627 -347 110 13 150 21 156 31 3 5 14 9 25 9 10 0 27 4 37 9 9 5 58 28 107 51
89 43 239 137 299 189 108 93 226 211 292 291 16 19 35 41 41 48 7 8 34 44 60
80 26 37 51 69 55 70 5 2 8 8 8 14 0 5 13 28 29 51 65 95 231 423 231 457 0 6
5 20 12 33 24 48 28 57 28 76 0 11 4 22 9 25 5 3 11 18 14 33 3 16 11 46 17
68 55 193 94 461 94 655 0 129 -29 365 -45 376 -5 3 -9 16 -9 30 0 13 -4 32
-9 42 -5 9 -20 44 -32 77 -12 33 -31 72 -41 87 -10 14 -18 29 -18 34 0 15 -84
120 -144 180 -61 61 -145 124 -165 124 -6 0 -11 3 -11 8 0 12 -128 57 -233 81
-55 13 -153 13 -182 1z m-111 -572 c54 -63 56 -94 14 -223 -43 -131 -209 -388
-324 -502 -103 -103 -205 -139 -270 -97 -98 65 -65 211 111 499 159 259 269
365 382 365 48 0 54 -3 87 -42z"/>
<path d="M4890 5319 c-63 -4 -128 -10 -145 -13 -65 -15 -145 -38 -192 -57 -13
-5 -33 -13 -45 -18 -47 -19 -135 -63 -183 -92 -27 -16 -58 -32 -67 -36 -10 -3
-18 -9 -18 -13 0 -5 -9 -12 -20 -15 -11 -3 -26 -12 -33 -18 -7 -7 -35 -27 -62
-46 -51 -35 -156 -112 -165 -121 -3 -3 -21 -17 -40 -31 -19 -15 -48 -39 -65
-53 -16 -14 -53 -45 -82 -68 -88 -73 -433 -427 -528 -543 -49 -60 -92 -112
-95 -115 -3 -3 -17 -21 -30 -40 -13 -19 -27 -37 -30 -40 -3 -3 -17 -21 -30
-40 -13 -19 -27 -37 -30 -40 -10 -7 -161 -236 -195 -295 -63 -107 -195 -365
-195 -380 0 -2 -13 -34 -30 -70 -16 -36 -30 -71 -30 -78 0 -7 -4 -17 -8 -22
-4 -6 -14 -28 -21 -50 -7 -22 -16 -49 -21 -60 -4 -11 -13 -40 -20 -65 -6 -25
-16 -53 -21 -62 -5 -10 -9 -29 -9 -42 0 -14 -4 -28 -10 -31 -5 -3 -10 -21 -10
-39 0 -17 -4 -36 -9 -41 -5 -6 -11 -28 -14 -50 -3 -22 -11 -76 -18 -120 -16
-100 -16 -418 -1 -505 6 -36 14 -81 17 -100 4 -19 10 -44 14 -55 5 -11 14 -38
20 -60 7 -22 17 -50 22 -62 5 -13 13 -33 18 -45 25 -66 80 -164 139 -248 51
-72 198 -224 252 -260 19 -13 37 -27 40 -30 6 -6 38 -25 107 -61 78 -41 202
-81 298 -96 101 -15 281 -7 378 18 128 32 189 51 201 61 6 4 16 8 23 8 7 0 35
9 61 21 26 12 56 25 67 29 11 4 47 20 80 35 122 56 211 96 297 134 26 12 52
21 58 21 6 0 18 4 28 10 18 10 113 41 177 58 109 29 157 33 310 29 149 -4 195
-10 285 -36 19 -5 46 -13 60 -16 14 -4 34 -10 45 -15 11 -4 36 -13 55 -20 61
-21 68 -24 223 -94 31 -14 83 -38 115 -52 139 -63 153 -69 222 -97 14 -5 33
-13 42 -18 10 -5 25 -9 33 -9 8 0 23 -4 33 -9 16 -8 37 -15 140 -40 107 -28
282 -33 397 -13 39 7 85 15 103 19 18 3 35 9 38 14 3 5 12 9 20 9 8 0 34 9 56
20 23 11 45 20 49 20 9 0 107 59 154 94 80 59 223 213 281 301 72 109 128 221
155 310 6 22 15 49 20 60 29 74 43 208 42 415 0 241 -13 345 -72 553 -6 20
-16 54 -22 75 -6 20 -13 47 -16 60 -3 12 -9 25 -14 28 -5 3 -9 14 -9 25 0 10
-4 27 -9 37 -11 21 -30 68 -62 147 -11 30 -157 325 -177 360 -59 101 -81 138
-126 205 -49 74 -166 240 -176 250 -3 3 -17 21 -32 42 -15 20 -33 42 -40 50
-7 7 -25 29 -40 50 -15 20 -33 42 -40 50 -7 7 -38 43 -68 78 -147 173 -338
364 -500 500 -36 30 -67 57 -70 60 -3 3 -54 42 -115 88 -60 45 -114 85 -120
90 -96 77 -334 207 -450 247 -165 57 -328 76 -545 64z m-16 -468 c23 -24 28
-36 23 -61 -15 -72 -134 -193 -442 -450 -88 -74 -209 -177 -270 -231 -60 -53
-125 -109 -144 -125 -19 -16 -55 -47 -80 -69 -80 -69 -194 -152 -246 -179
-127 -67 -204 6 -154 146 52 147 181 321 377 509 190 183 359 305 558 403 156
77 178 84 275 85 71 1 77 -1 103 -28z m-1444 -1276 c89 -46 75 -162 -35 -295
-69 -83 -125 -90 -171 -21 -37 57 -36 139 4 218 17 32 38 66 49 75 42 38 105
48 153 23z"/>
</g>
</svg>
